<?xml version="1.0" encoding="UTF-8" standalone="no"?>
<svg
   xmlns:dc="http://purl.org/dc/elements/1.1/"
   xmlns:cc="http://creativecommons.org/ns#"
   xmlns:rdf="http://www.w3.org/1999/02/22-rdf-syntax-ns#"
   xmlns:svg="http://www.w3.org/2000/svg"
   xmlns="http://www.w3.org/2000/svg"
   xmlns:sodipodi="http://sodipodi.sourceforge.net/DTD/sodipodi-0.dtd"
   xmlns:inkscape="http://www.inkscape.org/namespaces/inkscape"
   width="32"
   height="32"
   version="1.1"
   id="svg3779"
   sodipodi:docname="hamburger-menu.svg"
   inkscape:version="0.92.3 (2405546, 2018-03-11)">
  <metadata
     id="metadata3785">
    <rdf:RDF>
      <cc:Work
         rdf:about="">
        <dc:format>image/svg+xml</dc:format>
        <dc:type
           rdf:resource="http://purl.org/dc/dcmitype/StillImage" />
      </cc:Work>
    </rdf:RDF>
  </metadata>
  <defs
     id="defs3783" />
  <sodipodi:namedview
     pagecolor="#ffffff"
     bordercolor="#666666"
     borderopacity="1"
     objecttolerance="10"
     gridtolerance="10"
     guidetolerance="10"
     inkscape:pageopacity="0"
     inkscape:pageshadow="2"
     inkscape:window-width="3380"
     inkscape:window-height="1411"
     id="namedview3781"
     showgrid="false"
     inkscape:zoom="37.625"
     inkscape:cx="11.800664"
     inkscape:cy="16"
     inkscape:window-x="0"
     inkscape:window-y="0"
     inkscape:window-maximized="1"
     inkscape:current-layer="svg3779" />
  <g
     id="g3772">
    <title
       id="title3769">background</title>
    <rect
       fill="none"
       id="canvas_background"
       height="402"
       width="582"
       y="-1"
       x="-1" />
  </g>
  <g
     id="g3777"
     style="fill:#ffffff">
    <title
       id="title3774">Layer 1</title>
    <path
       id="svg_1"
       d="m4,10l24,0c1.104,0 2,-0.896 2,-2s-0.896,-2 -2,-2l-24,0c-1.104,0 -2,0.896 -2,2s0.896,2 2,2zm24,4l-24,0c-1.104,0 -2,0.896 -2,2s0.896,2 2,2l24,0c1.104,0 2,-0.896 2,-2s-0.896,-2 -2,-2zm0,8l-24,0c-1.104,0 -2,0.896 -2,2s0.896,2 2,2l24,0c1.104,0 2,-0.896 2,-2s-0.896,-2 -2,-2z"
       style="fill:#ffffff" />
  </g>
</svg>
